<?xml version="1.0"?>
<svg xmlns="http://www.w3.org/2000/svg" xmlns:xlink="http://www.w3.org/1999/xlink" version="1.1" id="Layer_1" x="0px" y="0px" viewBox="0 0 496 496" style="enable-background:new 0 0 496 496;" xml:space="preserve" width="512px" height="512px" class=""><g><circle style="fill:#6043E8" cx="248" cy="24" r="24" data-original="#383A39" class="" data-old_color="#8571E6"/><circle style="fill:#ECEEEE;" cx="248" cy="472" r="24" data-original="#ECEEEE"/><circle style="fill:#7F70D8" cx="136" cy="53.6" r="24" data-original="#77807F" class="" data-old_color="#6052B1"/><path style="fill:#F2F4F4;" d="M380.8,430.4c6.4,11.2,2.4,25.6-8.8,32.8c-11.2,6.4-25.6,2.4-32.8-8.8c-6.4-11.2-2.4-25.6,8.8-32.8  C359.2,415.2,374.4,419.2,380.8,430.4z" data-original="#F2F4F4"/><path style="fill:#9181D1" d="M65.6,115.2c11.2,6.4,15.2,20.8,8.8,32.8c-6.4,11.2-20.8,15.2-32.8,8.8c-11.2-6.4-15.2-20.8-8.8-32.8  S54.4,108.8,65.6,115.2z" data-original="#9FAAA9" class="" data-old_color="#3500FF"/><path style="fill:#F2F7F7;" d="M454.4,339.2c11.2,6.4,15.2,20.8,8.8,32.8c-6.4,11.2-20.8,15.2-32.8,8.8  c-11.2-6.4-15.2-20.8-8.8-32.8C428,336.8,442.4,332.8,454.4,339.2z" data-original="#F2F7F7" class=""/><circle style="fill:#C1BCC6" cx="24" cy="248" r="24" data-original="#B2BBBA" class="active-path" data-old_color="#DBD9DD"/><circle style="fill:#FFFFFF;" cx="472" cy="248" r="24" data-original="#FFFFFF" class=""/><path style="fill:#C5CCCB" d="M41.6,339.2c11.2-6.4,25.6-2.4,32.8,8.8c6.4,11.2,2.4,25.6-8.8,32.8c-11.2,6.4-25.6,2.4-32.8-8.8  S30.4,346.4,41.6,339.2z" data-original="#C5CCCB" class=""/><path d="M430.4,115.2c11.2-6.4,25.6-2.4,32.8,8.8c6.4,11.2,2.4,25.6-8.8,32.8c-11.2,6.4-25.6,2.4-32.8-8.8  C415.2,136.8,419.2,121.6,430.4,115.2z" data-original="#000000" class="" style="fill:#1D04AD" data-old_color="#2A0CD7"/><path style="fill:#D9DDDD;" d="M115.2,430.4c6.4-11.2,20.8-15.2,32.8-8.8c11.2,6.4,15.2,20.8,8.8,32.8c-6.4,11.2-20.8,15.2-32.8,8.8  C112.8,456,108.8,441.6,115.2,430.4z" data-original="#D9DDDD"/><path style="fill:#4321F2" d="M339.2,41.6c6.4-11.2,20.8-15.2,32.8-8.8c11.2,6.4,15.2,20.8,8.8,32.8c-6.4,11.2-20.8,15.2-32.8,8.8  C336.8,68,332.8,53.6,339.2,41.6z" data-original="#111111" class="" data-old_color="#4F2FF2"/></g> </svg>
